<svg width="48" height="48" viewBox="0 0 48 48" fill="none" xmlns="http://www.w3.org/2000/svg">
<path d="M46.6078 6.0201C46.4693 5.93584 46.3121 5.88742 46.1502 5.87921C45.9884 5.871 45.827 5.90327 45.6808 5.9731L38.0568 9.5641C36.7361 10.186 35.6033 11.1459 34.773 12.3466C33.9427 13.5472 33.4445 14.9459 33.3288 16.4011L33.1328 18.8371L29.1828 25.3981V22.5971C29.1828 22.5871 29.1768 22.5801 29.1768 22.5701C29.1756 22.4737 29.1601 22.378 29.1308 22.2861L27.2928 16.7721L31.0458 9.2681C31.1266 9.10415 31.1601 8.92096 31.1426 8.73903C31.1251 8.55711 31.0573 8.38365 30.9468 8.2381L25.0468 0.371097C24.9512 0.255047 24.8311 0.161591 24.6951 0.0974322C24.5591 0.0332729 24.4106 0 24.2603 0C24.1099 0 23.9614 0.0332729 23.8254 0.0974322C23.6895 0.161591 23.5694 0.255047 23.4738 0.371097L17.5728 8.2401C17.4632 8.38623 17.3965 8.55998 17.38 8.74189C17.3636 8.9238 17.3982 9.1067 17.4798 9.2701L21.2328 16.7731L19.3948 22.2871C19.3651 22.3789 19.3493 22.4746 19.3478 22.5711V26.5221L13.2208 17.2231C13.2138 17.2131 13.2008 17.2061 13.1948 17.1971C13.1358 17.1151 13.0646 17.0426 12.9838 16.9821C12.9638 16.9691 12.9478 16.9521 12.9278 16.9401C12.9078 16.9271 12.9058 16.9201 12.8928 16.9131L9.28777 14.8281L7.79077 12.5571L5.62777 9.2701C5.50703 9.08704 5.32855 8.94961 5.12072 8.87966C4.91288 8.80972 4.68762 8.81128 4.48077 8.8841L0.653773 10.2271C0.513233 10.2771 0.385903 10.3583 0.281429 10.4648C0.176954 10.5712 0.0980737 10.7001 0.0507625 10.8415C0.00345118 10.983 -0.0110504 11.1333 0.00835602 11.2812C0.0277625 11.4291 0.080568 11.5706 0.162773 11.6951L2.86777 15.8021L4.35977 18.0721L4.85177 22.2091C4.85434 22.2226 4.85768 22.236 4.86177 22.2491C4.86577 22.2691 4.87077 22.2901 4.87677 22.3101C4.89905 22.4141 4.93824 22.5138 4.99277 22.6051C4.99977 22.6151 4.99977 22.6281 5.00677 22.6381C5.01377 22.6481 19.6308 44.8031 19.7018 44.8631C20.0532 45.7859 20.6768 46.5801 21.4899 47.1404C22.3031 47.7006 23.2673 48.0005 24.2548 48.0001C24.6548 48.0001 25.0548 47.9501 25.4448 47.8551C26.0722 47.7012 26.6628 47.4245 27.1826 47.0408C27.7023 46.6572 28.1409 46.1743 28.4728 45.6201L41.5528 23.9221L43.6178 22.6151C44.7022 21.9251 45.6125 20.9939 46.2778 19.8941C47.1227 18.4947 47.5334 16.876 47.4578 15.2431L47.0748 6.8231C47.0691 6.66114 47.0235 6.50311 46.942 6.36302C46.8605 6.22294 46.7457 6.10514 46.6078 6.0201V6.0201ZM39.4858 23.5441L37.9638 26.0711L32.9098 23.0231L34.4338 20.4961L39.4858 23.5441V23.5441ZM21.3148 38.4461V23.5801H27.2148V28.6601L21.3148 38.4461V38.4461ZM23.0078 17.6801H25.5228L26.8328 21.6131H21.6968L23.0068 17.6801H23.0078ZM24.2648 10.7951C24.0041 10.7951 23.754 10.6915 23.5697 10.5072C23.3853 10.3228 23.2818 10.0728 23.2818 9.8121C23.2818 9.55139 23.3853 9.30136 23.5697 9.11701C23.754 8.93266 24.0041 8.8291 24.2648 8.8291C24.5255 8.8291 24.7755 8.93266 24.9599 9.11701C25.1442 9.30136 25.2478 9.55139 25.2478 9.8121C25.2478 10.0728 25.1442 10.3228 24.9599 10.5072C24.7755 10.6915 24.5255 10.7951 24.2648 10.7951V10.7951ZM24.2648 2.6011L29.0148 8.9321L25.6248 15.7121H25.2478V12.5821C25.9039 12.3502 26.457 11.8938 26.8091 11.2936C27.1613 10.6933 27.29 9.98792 27.1723 9.30202C27.0547 8.61611 26.6983 7.99387 26.1663 7.5453C25.6342 7.09672 24.9607 6.85069 24.2648 6.85069C23.5688 6.85069 22.8953 7.09672 22.3633 7.5453C21.8312 7.99387 21.4749 8.61611 21.3572 9.30202C21.2396 9.98792 21.3682 10.6933 21.7204 11.2936C22.0726 11.8938 22.6256 12.3502 23.2818 12.5821V15.7121H22.9058L19.5158 8.9321L24.2658 2.6011H24.2648ZM10.5298 17.8181L10.2398 18.0081L6.61877 20.3951L6.28577 17.6081C6.26743 17.4566 6.21402 17.3114 6.12977 17.1841L5.04877 15.5421L6.68977 14.4601L7.77077 16.1021C7.85501 16.2295 7.96762 16.3356 8.09977 16.4121L10.5288 17.8181H10.5298ZM4.40777 10.9921L5.60777 12.8141L3.96577 13.8961L2.49077 11.6641L4.40777 10.9921ZM9.65677 20.7471L12.1148 19.1231L19.3478 30.0951V40.8211L7.19277 22.3711L9.65677 20.7471ZM26.7918 44.5981C26.5916 44.9298 26.3281 45.2189 26.0163 45.4487C25.7044 45.6786 25.3504 45.8448 24.9743 45.9379C24.5982 46.0309 24.2075 46.049 23.8244 45.991C23.4414 45.9331 23.0735 45.8002 22.7418 45.6001C22.4101 45.4 22.121 45.1364 21.8911 44.8246C21.6612 44.5128 21.495 44.1587 21.402 43.7826C21.3089 43.4065 21.2909 43.0158 21.3488 42.6328C21.4068 42.2497 21.5396 41.8818 21.7398 41.5501L29.1648 29.2351H29.1818V29.2081L31.8938 24.7091L34.4208 26.2351L36.9508 27.7551L26.7908 44.5981H26.7918ZM44.5988 18.8741C44.0916 19.7122 43.3976 20.4217 42.5708 20.9471L40.8238 22.0541L37.9718 20.3371L35.1198 18.6201L35.2818 16.5551C35.3702 15.4457 35.75 14.3794 36.3829 13.464C37.0157 12.5486 37.8792 11.8166 38.8858 11.3421L45.1798 8.3801L45.3048 11.1201C45.2063 11.1097 45.1068 11.1144 45.0098 11.1341L42.6278 11.7241C41.5412 11.9895 40.5507 12.5539 39.7686 13.3535C38.9865 14.1532 38.444 15.1559 38.2028 16.2481C38.1458 16.5026 38.1922 16.7693 38.3318 16.9895C38.4714 17.2098 38.6928 17.3656 38.9473 17.4226C39.2017 17.4796 39.4685 17.4332 39.6887 17.2936C39.909 17.154 40.0648 16.9326 40.1218 16.6781C40.2847 15.9437 40.6499 15.2694 41.1759 14.7317C41.702 14.1939 42.3681 13.8141 43.0988 13.6351L45.3958 13.0651L45.4988 15.3271C45.5563 16.5727 45.2431 17.8075 44.5988 18.8751V18.8741Z" fill="#2BD0D0"/>
</svg>
